PathFileType	4	(X/Y/Z)	 0.06m3min.trc
DataRate	CameraRate	NumFrames	NumMarkers	Units	OrigDataRate	OrigDataStartFrame	OrigNumFrames
200	200	8	34	m	200	876	1000
Frame#	Time	LSH			RSH			MAN			RASI			LASI			HIPR			HIPL			RPSI			LPSI			COX			RTHI1			RTHI2			RTHI3			RTHI4			RSHA1			RSHA2			RSHA3			RSHA4			RHEEL			RMET5			RMET1			RTOE			LTHI1			LTHI2			LTHI3			LTHI4			LSHA1			LSHA2			LSHA3			LSHA4			LHEEL			LMET5			LMET1			LTOE			
		X1	Y1	Z1	X2	Y2	Z2	X3	Y3	Z3	X4	Y4	Z4	X5	Y5	Z5	X6	Y6	Z6	X7	Y7	Z7	X8	Y8	Z8	X9	Y9	Z9	X10	Y10	Z10	X11	Y11	Z11	X12	Y12	Z12	X13	Y13	Z13	X14	Y14	Z14	X15	Y15	Z15	X16	Y16	Z16	X17	Y17	Z17	X18	Y18	Z18	X19	Y19	Z19	X20	Y20	Z20	X21	Y21	Z21	X22	Y22	Z22	X23	Y23	Z23	X24	Y24	Z24	X25	Y25	Z25	X26	Y26	Z26	X27	Y27	Z27	X28	Y28	Z28	X29	Y29	Z29	X30	Y30	Z30	X31	Y31	Z31	X32	Y32	Z32	X33	Y33	Z33	X34	Y34	Z34	
876	4.3800	-0.176387	1.406890	-0.690207	-0.239027	1.379995	-0.355487	-0.142375	1.367372	-0.512013	-0.119285	0.974167	-0.398958	-0.089931	0.969115	-0.624611	-0.177312	1.018915	-0.381357	-0.141570	1.011608	-0.657824	-0.268642	0.993141	-0.474806	-0.254234	0.992558	-0.587391	-0.265832	0.995014	-0.530996	-0.201692	0.757508	-0.353216	-0.175112	0.703782	-0.348149	-0.116698	0.729288	-0.338150	-0.135890	0.787664	-0.341386	-0.220221	0.349729	-0.347302	-0.236457	0.311377	-0.357105	-0.178078	0.294470	-0.356623	-0.165931	0.332628	-0.351279	-0.326189	0.126286	-0.415749	-0.196938	0.032304	-0.356793	-0.168853	0.038205	-0.422812	-0.144270	0.028484	-0.418694	-0.146959	0.770931	-0.691715	-0.123693	0.713968	-0.686659	-0.063971	0.733695	-0.669879	-0.079737	0.791318	-0.673841	-0.185362	0.355459	-0.694430	-0.205919	0.320504	-0.693954	-0.149770	0.295463	-0.680827	-0.135695	0.337318	-0.683433	-0.322288	0.116392	-0.657359	-0.187068	0.034314	-0.694496	-0.157757	0.037202	-0.624188	-0.135615	0.028488	-0.625554	
877	4.3850	-0.175910	1.401709	-0.690138	-0.238503	1.374927	-0.355518	-0.142187	1.361828	-0.512015	-0.120042	0.969054	-0.398939	-0.090718	0.964120	-0.624678	-0.178259	1.013507	-0.381335	-0.142491	1.006349	-0.658002	-0.269635	0.987482	-0.474837	-0.255193	0.986998	-0.587477	-0.266693	0.989426	-0.531022	-0.201669	0.751691	-0.353088	-0.174640	0.698198	-0.348150	-0.116380	0.724106	-0.338231	-0.135943	0.782354	-0.341439	-0.220020	0.345630	-0.347537	-0.236658	0.307380	-0.357627	-0.178516	0.289904	-0.357376	-0.165937	0.327955	-0.351776	-0.328718	0.122887	-0.416306	-0.197623	0.031771	-0.356243	-0.169314	0.038150	-0.422662	-0.144251	0.028384	-0.418856	-0.146118	0.765363	-0.691886	-0.122526	0.708555	-0.686666	-0.063095	0.728658	-0.669317	-0.079204	0.786165	-0.673370	-0.184339	0.351393	-0.694462	-0.205395	0.316766	-0.694125	-0.149679	0.290956	-0.680723	-0.135011	0.332614	-0.683244	-0.324395	0.113482	-0.658410	-0.187574	0.033817	-0.695066	-0.158161	0.037181	-0.624494	-0.135757	0.028403	-0.625571	
878	4.3900	-0.175432	1.396398	-0.690079	-0.237982	1.369732	-0.355548	-0.142022	1.356165	-0.512028	-0.120791	0.963745	-0.398884	-0.091516	0.958962	-0.624791	-0.179202	1.007890	-0.381278	-0.143448	1.000888	-0.658218	-0.270676	0.981634	-0.474862	-0.256190	0.981256	-0.587573	-0.267580	0.983673	-0.531050	-0.201634	0.745621	-0.353236	-0.174261	0.692425	-0.348187	-0.116201	0.718749	-0.338126	-0.136122	0.776872	-0.341406	-0.219848	0.341528	-0.347796	-0.236894	0.303372	-0.358117	-0.178966	0.285319	-0.357997	-0.165967	0.323264	-0.352186	-0.331179	0.119494	-0.416722	-0.198414	0.031236	-0.355867	-0.169857	0.038160	-0.422599	-0.144303	0.028308	-0.418987	-0.145409	0.759583	-0.692102	-0.121449	0.702943	-0.686776	-0.062290	0.723446	-0.668994	-0.078779	0.780827	-0.673076	-0.183264	0.347329	-0.694377	-0.204836	0.313063	-0.694216	-0.149557	0.286436	-0.680655	-0.134286	0.327898	-0.683048	-0.326374	0.110630	-0.659554	-0.188065	0.033301	-0.695576	-0.158576	0.037178	-0.624733	-0.135900	0.028320	-0.625557	
879	4.3950	-0.174997	1.390978	-0.690040	-0.237481	1.364430	-0.355566	-0.141873	1.350419	-0.512054	-0.121532	0.958260	-0.398787	-0.092322	0.953649	-0.624962	-0.180147	1.002087	-0.381179	-0.144443	0.995237	-0.658475	-0.271771	0.975618	-0.474876	-0.257235	0.975342	-0.587673	-0.268504	0.977769	-0.531080	-0.201711	0.739385	-0.353525	-0.173966	0.686510	-0.348249	-0.116148	0.713247	-0.337845	-0.136419	0.771243	-0.341311	-0.219689	0.337448	-0.348061	-0.237119	0.299385	-0.358548	-0.179383	0.280751	-0.358452	-0.166004	0.318609	-0.352533	-0.333515	0.116054	-0.417106	-0.199345	0.030675	-0.355527	-0.170428	0.038204	-0.422580	-0.144379	0.028253	-0.419086	-0.144834	0.753613	-0.692356	-0.120470	0.697153	-0.686979	-0.061549	0.718084	-0.668917	-0.078456	0.775335	-0.672990	-0.182119	0.343323	-0.694227	-0.204184	0.309400	-0.694249	-0.149321	0.281958	-0.680616	-0.133469	0.323228	-0.682854	-0.328224	0.107780	-0.660654	-0.188529	0.032758	-0.696086	-0.158946	0.037176	-0.624934	-0.136000	0.028241	-0.625508	
880	4.4000	-0.174633	1.385477	-0.690035	-0.237000	1.359044	-0.355570	-0.141741	1.344582	-0.512107	-0.122275	0.952622	-0.398640	-0.093136	0.948205	-0.625195	-0.181109	0.996102	-0.381027	-0.145479	0.989403	-0.658765	-0.272928	0.969454	-0.474883	-0.258335	0.969271	-0.587787	-0.269482	0.971734	-0.531118	-0.201801	0.733143	-0.354020	-0.173762	0.680512	-0.348253	-0.116214	0.707639	-0.337413	-0.136811	0.765500	-0.341138	-0.219541	0.333394	-0.348304	-0.237302	0.295434	-0.358896	-0.179734	0.276213	-0.358753	-0.166023	0.314005	-0.352793	-0.335746	0.112572	-0.417524	-0.200276	0.030123	-0.355191	-0.170964	0.038250	-0.422540	-0.144425	0.028209	-0.419145	-0.144386	0.747480	-0.692645	-0.119583	0.691213	-0.687249	-0.060867	0.712599	-0.669064	-0.078228	0.769712	-0.673110	-0.180882	0.339371	-0.694056	-0.203392	0.305764	-0.694242	-0.148916	0.277556	-0.680573	-0.132535	0.318668	-0.682659	-0.329968	0.104915	-0.661599	-0.188958	0.032199	-0.696621	-0.159244	0.037166	-0.625111	-0.136035	0.028161	-0.625433	
881	4.4050	-0.174344	1.379928	-0.690075	-0.236537	1.353607	-0.355562	-0.141615	1.338678	-0.512187	-0.123030	0.946860	-0.398429	-0.093957	0.942657	-0.625503	-0.182095	0.989960	-0.380817	-0.146556	0.983405	-0.659095	-0.274156	0.963162	-0.474889	-0.259490	0.963065	-0.587920	-0.270532	0.965594	-0.531161	-0.201905	0.726823	-0.354479	-0.173669	0.674491	-0.348234	-0.116394	0.701983	-0.336877	-0.137305	0.759728	-0.340903	-0.219393	0.329354	-0.348478	-0.237438	0.291501	-0.359153	-0.180008	0.271729	-0.358971	-0.166010	0.309469	-0.352979	-0.337831	0.109065	-0.418039	-0.201142	0.029574	-0.354823	-0.171425	0.038281	-0.422441	-0.144431	0.028170	-0.419142	-0.144054	0.741207	-0.692951	-0.118782	0.685149	-0.687553	-0.060234	0.707022	-0.669399	-0.078080	0.763986	-0.673422	-0.179564	0.335460	-0.693899	-0.202454	0.302128	-0.694220	-0.148326	0.273259	-0.680470	-0.131492	0.314236	-0.682444	-0.331628	0.102040	-0.662304	-0.189354	0.031665	-0.697150	-0.159477	0.037142	-0.625275	-0.136021	0.028086	-0.625355	
882	4.4100	-0.174137	1.374359	-0.690178	-0.236135	1.348125	-0.355530	-0.141482	1.332738	-0.512293	-0.123799	0.941022	-0.398157	-0.094785	0.937031	-0.625891	-0.183119	0.983682	-0.380542	-0.147675	0.977266	-0.659466	-0.275457	0.956773	-0.474906	-0.260702	0.956747	-0.588060	-0.271662	0.959383	-0.531225	-0.202056	0.720429	-0.354847	-0.173720	0.668550	-0.348197	-0.116712	0.696370	-0.336295	-0.137921	0.754009	-0.340640	-0.219206	0.325303	-0.348553	-0.237508	0.287555	-0.359331	-0.180189	0.267334	-0.359159	-0.165951	0.304995	-0.353117	-0.339730	0.105587	-0.418616	-0.201887	0.029080	-0.354457	-0.171820	0.038275	-0.422294	-0.144409	0.028119	-0.419082	-0.143829	0.734839	-0.693258	-0.118063	0.679001	-0.687854	-0.059652	0.701391	-0.669870	-0.078003	0.758196	-0.673890	-0.178197	0.331576	-0.693789	-0.201401	0.298467	-0.694188	-0.147590	0.269075	-0.680248	-0.130375	0.309928	-0.682183	-0.333213	0.099219	-0.662749	-0.189734	0.031192	-0.697623	-0.159672	0.037111	-0.625424	-0.135984	0.028016	-0.625290	
883	4.4150	-0.174022	1.368807	-0.690354	-0.235811	1.342621	-0.355473	-0.141316	1.326791	-0.512428	-0.124599	0.935153	-0.397818	-0.095613	0.931357	-0.626362	-0.184194	0.977301	-0.380208	-0.148840	0.971021	-0.659867	-0.276822	0.950332	-0.474945	-0.261960	0.950360	-0.588208	-0.272869	0.953150	-0.531296	-0.202386	0.714310	-0.354951	-0.173958	0.662825	-0.348154	-0.117202	0.690912	-0.335709	-0.138692	0.748457	-0.340373	-0.218976	0.321252	-0.348557	-0.237497	0.283612	-0.359464	-0.180267	0.263047	-0.359360	-0.165837	0.300568	-0.353239	-0.341469	0.102222	-0.419251	-0.202503	0.028659	-0.354143	-0.172166	0.038234	-0.422136	-0.144373	0.028053	-0.418995	-0.143704	0.728453	-0.693549	-0.117442	0.672844	-0.688128	-0.059136	0.695768	-0.670435	-0.078001	0.752408	-0.674479	-0.176834	0.327700	-0.693731	-0.200300	0.294780	-0.694145	-0.146792	0.264985	-0.679872	-0.129248	0.305725	-0.681846	-0.334731	0.096479	-0.662871	-0.190119	0.030789	-0.697984	-0.159848	0.037077	-0.625542	-0.135941	0.027954	-0.625245	
